<svg width="300" height="250" xmlns="http://www.w3.org/2000/svg" xmlns:xlink="http://www.w3.org/1999/xlink"><defs><linearGradient x1="50%" y1="100%" x2="50%" y2="0%" id="b"><stop stop-color="#A804C7" offset="0%"/><stop stop-color="#7406A5" stop-opacity=".9" offset="100%"/></linearGradient><rect id="a" width="300" height="250" rx="5"/><linearGradient x1="50%" y1="100%" x2="50%" y2="0%" id="e"><stop stop-color="#219963" offset="0%"/><stop stop-color="#24B373" offset="100%"/></linearGradient><rect id="d" width="196" height="40" rx="20"/><filter x="-7.1%" y="-25%" width="114.3%" height="170%" filterUnits="objectBoundingBox" id="c"><feOffset dy="4" in="SourceAlpha" result="shadowOffsetOuter1"/><feGaussianBlur stdDeviation="4" in="shadowOffsetOuter1" result="shadowBlurOuter1"/><feColorMatrix values="0 0 0 0 0 0 0 0 0 0 0 0 0 0 0 0 0 0 0.1 0" in="shadowBlurOuter1"/></filter></defs><g fill="none" fill-rule="evenodd"><use fill="#FFF" xlink:href="#a"/><use fill-opacity=".9" fill="url(#b)" xlink:href="#a"/><g fill-rule="nonzero"><path d="M119.42 24L106 28.667l2.083 17.204L119.42 52l11.395-6.128 2.025-17.205L119.421 24zm6.306 18.948l-1.215-3.149-1.85.056c-.35.582-.757 1.129-1.216 1.631-.52.562-1.041.9-1.735 1.18-.752.338-1.388.507-2.488.507-1.099 0-2.024-.338-2.603-.675-.578-.337-1.099-.731-1.504-1.293-.29-.394-.52-.731-.694-1.125-.058-.225-.231-.618-.231-.675-.116-.45-.232-.73-.232-1.799v-5.735h1.562v5.735c.058.394.174 1.181.232 1.519.057.224.057.28.173.562.116.28.231.506.463.73.29.338.578.62.984.844.404.225 1.04.506 1.85.506 1.33 0 2.257-.619 3.066-1.293.348-.337.752-1.012 1.1-1.63.057-.17.23-.507.23-.507h2.43l-1.793-4.667-2.892 5.398H117.8v-7.253h1.562v3.936l2.082-3.935h1.736l4.223 11.132h-1.678z" fill="#FFF" opacity=".8"/><path d="M121.222 39.167c.053-.175.211-.525.211-.525h2.226l-1.643-4.842-2.595 5.483V41.5c.264-.175.529-.408.794-.642.317-.35.688-1.05 1.006-1.691z" fill="#F3F2F4" opacity=".4"/><path d="M119.42 24v11.639l2.025-3.824h1.736l4.223 11.133h-1.678l-1.215-3.149-1.85.056c-.35.582-.757 1.129-1.216 1.631-.52.562-1.041.9-1.735 1.18-.116.057-.174.113-.29.113V52l11.396-6.129 2.025-17.204L119.421 24z" fill="#F3F2F4" opacity=".7"/><path d="M138.492 32.366c0 .896.748 1.434 1.67 1.434 1.035 0 1.841-.657 2.014-1.733l.575-3.107h-.806l-.576 2.988c-.172.657-.575 1.016-1.208 1.016-.576 0-.864-.24-.864-.777v-.24l.576-2.987h-.806l-.575 3.107v.299zm4.432 1.374h2.82l.172-.777h-2.014l.748-4.003h-.805l-.921 4.78zm4.432 0h.805l.748-4.004h1.555l.114-.776h-3.798l-.23.717h1.438l-.632 4.063zm2.935 0h.805l.864-4.78h-.806l-.863 4.78zm1.842 0h.805l.748-2.689c.058-.358.173-.777.173-.777s.058.479.058.777l.403 1.853h.748l1.036-1.853c.172-.239.403-.777.403-.777s-.058.419-.173.777l-.345 2.69h.805l.461-4.781h-.863l-1.382 2.33c-.173.24-.345.657-.345.657s0-.418-.058-.657l-.46-2.33h-.863c-.058 0-1.151 4.78-1.151 4.78zm6.1 0l.633-1.254h1.612l.172 1.254h.806l-.748-4.78h-.92l-2.418 4.78h.863zm.979-1.972l.633-1.255c.172-.239.345-.777.345-.777s0 .479.058.777l.172 1.255h-1.208zm3.683 1.972h.806l.748-4.004h1.554l.173-.776h-3.799l-.173.776h1.44c0-.059-.749 4.004-.749 4.004zm2.935 0h2.82l.173-.777h-2.014l.23-1.254h1.554l.172-.777h-1.553l.23-1.255h1.957l.172-.777h-2.877c0 .06-.864 4.84-.864 4.84zm-23.74 11.087h1.544l-2.859-8.168h-1.543l-2.859 8.168h1.543l.687-2.07h2.858l.63 2.07zm-2.115-6.73s.171.806.343 1.266l.743 2.186h-2.115l.743-2.186c.114-.46.286-1.266.286-1.266zm4.687 6.73h1.487V40.11c0-.46-.057-1.265-.057-1.265s.343.805.686 1.265l3.087 4.718h1.486v-8.17h-1.543v4.718c0 .46.057 1.265.057 1.265s-.343-.805-.686-1.265l-3.087-4.718h-1.43v8.169zm8.118-4.084c0 2.589 1.83 4.257 4.002 4.257 1.487 0 2.344-.863 2.344-.863v.748h1.258V40.57h-2.573v1.265h1.258v.978s-.8.863-2.058.863c-1.543 0-2.744-1.15-2.744-2.934 0-1.553.972-2.818 2.801-2.818a3.41 3.41 0 0 1 2.172.805l.744-1.093s-1.03-1.036-3.03-1.036c-2.401-.057-4.174 1.784-4.174 4.142zm9.147 1.15c0 1.842 1.315 3.05 3.26 3.05 1.943 0 3.258-1.266 3.258-3.05V36.66h-1.487v5.235c0 1.092-.743 1.725-1.83 1.725-1.085 0-1.771-.632-1.771-1.725v-5.235h-1.487l.058 5.235c-.058 0 0 0 0 0zm8.462 2.934h4.973v-1.265h-3.487v-6.903h-1.486v8.168zm10.92 0h1.543l-2.858-8.168h-1.601l-2.859 8.168h1.544l.686-2.07h2.858l.686 2.07zm-2.116-6.73s.171.805.343 1.266l.743 2.185h-2.115l.743-2.185c.115-.46.286-1.266.286-1.266zm4.688 6.73h1.486v-3.049h1.43l1.6 3.05h1.658l-1.658-3.05c-.171-.287-.286-.402-.286-.402.858-.345 1.373-1.266 1.373-2.244 0-1.093-.515-1.84-1.315-2.243-.343-.173-.744-.23-1.659-.23h-2.63v8.168zm1.429-4.314v-2.53h1.144c1.143 0 1.486.46 1.486 1.265 0 .805-.515 1.265-1.258 1.265h-1.372zm5.452-3.553v-.36h1.742v.36h-.64v1.74h-.406v-1.74h-.696zm2.612-.36l.523 1.5.522-1.5H195v2.1h-.348v-1.68l-.58 1.68h-.29l-.582-1.68v1.68h-.348v-2.1h.522z" fill="#FFF"/></g><g transform="translate(52 185)"><use fill="#000" filter="url(#c)" xlink:href="#d"/><use fill="url(#e)" xlink:href="#d"/></g><path d="M114.336 198.592c1.045 0 1.947.195 2.704.584.757.39 1.328.813 1.712 1.272l-1.424 1.472c-.747-.821-1.712-1.232-2.896-1.232-1.077 0-1.939.352-2.584 1.056-.645.704-.968 1.59-.968 2.656 0 1.12.333 2.016 1 2.688.667.672 1.517 1.008 2.552 1.008.683 0 1.253-.099 1.712-.296.459-.197.784-.392.976-.584v-1.376h-2.128v-1.904h4.24v4.432a8.193 8.193 0 0 1-2.16 1.368c-.747.315-1.659.472-2.736.472-1.632 0-3.008-.536-4.128-1.608s-1.68-2.472-1.68-4.2c0-1.632.547-3.008 1.64-4.128s2.483-1.68 4.168-1.68zm6.28 7.248c0-1.27.387-2.323 1.16-3.16.773-.837 1.752-1.256 2.936-1.256 1.28 0 2.277.397 2.992 1.192.715.795 1.072 1.885 1.072 3.272 0 .213-.005.373-.016.48h-5.888c.021.565.235 1.027.64 1.384s.917.536 1.536.536c.885 0 1.563-.341 2.032-1.024l1.456 1.104c-.235.427-.65.84-1.248 1.24-.597.4-1.355.6-2.272.6-1.323 0-2.387-.408-3.192-1.224-.805-.816-1.208-1.864-1.208-3.144zm2.32-.912h3.6c-.021-.512-.197-.923-.528-1.232-.33-.31-.752-.464-1.264-.464s-.928.16-1.248.48c-.32.32-.507.725-.56 1.216zm7.48-3.296v-1.76h2.176v1.76h1.568v1.792h-1.568v3.232c0 .597.093.997.28 1.2.187.203.504.304.952.304.15 0 .283-.005.4-.016v1.888c-.224.053-.539.08-.944.08-.992 0-1.72-.28-2.184-.84-.464-.56-.696-1.41-.696-2.552v-3.296h-.88v-1.792h.896zm12.832-3.04c.533 0 1.016.085 1.448.256.432.17.779.395 1.04.672s.467.539.616.784c.15.245.267.49.352.736l-1.872.848c-.373-.81-.917-1.216-1.632-1.216-.373 0-.67.101-.888.304a1.002 1.002 0 0 0-.328.768c0 .33.168.627.504.888.336.261.741.496 1.216.704.475.208.95.443 1.424.704.475.261.88.627 1.216 1.096.336.47.504 1.024.504 1.664 0 1.003-.336 1.821-1.008 2.456-.672.635-1.584.952-2.736.952a4.258 4.258 0 0 1-1.536-.264c-.459-.176-.83-.408-1.112-.696a5.079 5.079 0 0 1-.672-.824 3.888 3.888 0 0 1-.392-.808l1.904-.928c.395.95 1.04 1.424 1.936 1.424.416 0 .741-.101.976-.304.235-.203.352-.485.352-.848 0-.341-.165-.645-.496-.912a5.523 5.523 0 0 0-1.208-.72c-.475-.213-.95-.453-1.424-.72a3.603 3.603 0 0 1-1.208-1.12c-.33-.48-.496-1.05-.496-1.712 0-.95.32-1.717.96-2.304.64-.587 1.493-.88 2.56-.88zm5.4 3.04v-1.76h2.176v1.76h1.568v1.792h-1.568v3.232c0 .597.093.997.28 1.2.187.203.504.304.952.304.15 0 .283-.005.4-.016v1.888c-.224.053-.539.08-.944.08-.992 0-1.72-.28-2.184-.84-.464-.56-.696-1.41-.696-2.552v-3.296h-.88v-1.792h.896zm4.84 5.776c0-.821.299-1.488.896-2s1.381-.768 2.352-.768c.757 0 1.36.155 1.808.464v-.544c0-.373-.133-.672-.4-.896-.267-.224-.64-.336-1.12-.336-.715 0-1.456.197-2.224.592l-.832-1.504c.405-.277.904-.512 1.496-.704a5.801 5.801 0 0 1 1.8-.288c1.259 0 2.155.29 2.688.872.533.581.8 1.384.8 2.408V210H158.8l-.144-.544c-.47.501-1.147.752-2.032.752s-1.63-.253-2.232-.76c-.603-.507-.904-1.187-.904-2.04zm2.608-.896c-.267.213-.4.49-.4.832 0 .341.139.619.416.832.277.213.624.32 1.04.32.427 0 .773-.104 1.04-.312.267-.208.4-.488.4-.84 0-.363-.133-.648-.4-.856-.267-.208-.619-.312-1.056-.312-.427 0-.773.112-1.04.336zm10.952-5.088v2.24c-1.504 0-2.256.896-2.256 2.688V210h-2.208v-8.368h2.16v1.216c.192-.427.49-.77.896-1.032.405-.261.875-.392 1.408-.392zm2.184.208v-1.76h2.176v1.76h1.568v1.792h-1.568v3.232c0 .597.093.997.28 1.2.187.203.504.304.952.304.15 0 .283-.005.4-.016v1.888c-.224.053-.539.08-.944.08-.992 0-1.72-.28-2.184-.84-.464-.56-.696-1.41-.696-2.552v-3.296h-.88v-1.792h.896zm4.872 4.208c0-1.27.387-2.323 1.16-3.16.773-.837 1.752-1.256 2.936-1.256 1.28 0 2.277.397 2.992 1.192.715.795 1.072 1.885 1.072 3.272 0 .213-.005.373-.016.48h-5.888c.021.565.235 1.027.64 1.384s.917.536 1.536.536c.885 0 1.563-.341 2.032-1.024l1.456 1.104c-.235.427-.65.84-1.248 1.24-.597.4-1.355.6-2.272.6-1.323 0-2.387-.408-3.192-1.224-.805-.816-1.208-1.864-1.208-3.144zm2.32-.912h3.6c-.021-.512-.197-.923-.528-1.232-.33-.31-.752-.464-1.264-.464s-.928.16-1.248.48c-.32.32-.507.725-.56 1.216zm15.464-6.496V210h-2.08v-.864a2.422 2.422 0 0 1-.424.416c-.176.139-.456.283-.84.432-.384.15-.79.224-1.216.224-1.205 0-2.19-.408-2.952-1.224-.763-.816-1.144-1.87-1.144-3.16 0-1.301.363-2.36 1.088-3.176.725-.816 1.685-1.224 2.88-1.224.63 0 1.157.123 1.584.368.427.245.725.485.896.72v-4.08h2.208zm-2.144 7.408c0-.768-.2-1.37-.6-1.808-.4-.437-.915-.656-1.544-.656-.64 0-1.157.23-1.552.688-.395.459-.592 1.05-.592 1.776 0 .736.2 1.323.6 1.76.4.437.915.656 1.544.656.65 0 1.17-.232 1.56-.696.39-.464.584-1.037.584-1.72zM71.226 86V67.8h3.666v14.898h5.928V86h-9.594zm10.764-6.76c0-2.063.628-3.774 1.885-5.135 1.257-1.36 2.847-2.041 4.771-2.041 2.08 0 3.7.646 4.862 1.937 1.161 1.291 1.742 3.064 1.742 5.317 0 .347-.009.607-.026.78h-9.568c.035.919.381 1.668 1.04 2.249.659.58 1.49.871 2.496.871 1.439 0 2.54-.555 3.302-1.664l2.366 1.794c-.381.693-1.057 1.365-2.028 2.015-.97.65-2.201.975-3.692.975-2.15 0-3.878-.663-5.187-1.989-1.309-1.326-1.963-3.029-1.963-5.109zm3.77-1.482h5.85c-.035-.832-.32-1.5-.858-2.002-.537-.503-1.222-.754-2.054-.754-.832 0-1.508.26-2.028.78s-.823 1.179-.91 1.976zm10.712 4.03c0-1.335.485-2.418 1.456-3.25.97-.832 2.245-1.248 3.822-1.248 1.23 0 2.21.251 2.938.754v-.884c0-.607-.217-1.092-.65-1.456-.433-.364-1.04-.546-1.82-.546-1.161 0-2.366.32-3.614.962l-1.352-2.444c.659-.45 1.469-.832 2.431-1.144a9.427 9.427 0 0 1 2.925-.468c2.045 0 3.501.472 4.368 1.417.867.945 1.3 2.249 1.3 3.913V86h-3.172l-.234-.884c-.763.815-1.863 1.222-3.302 1.222s-2.648-.412-3.627-1.235c-.98-.823-1.469-1.928-1.469-3.315zm4.238-1.456a1.65 1.65 0 0 0-.65 1.352c0 .555.225 1.005.676 1.352.45.347 1.014.52 1.69.52.693 0 1.257-.169 1.69-.507.433-.338.65-.793.65-1.365 0-.59-.217-1.053-.65-1.391-.433-.338-1.005-.507-1.716-.507-.693 0-1.257.182-1.69.546zm17.472-8.268v3.64c-2.444 0-3.666 1.456-3.666 4.368V86h-3.588V72.402h3.51v1.976a3.836 3.836 0 0 1 1.456-1.677c.659-.425 1.421-.637 2.288-.637zm9.256 0c3.137 0 4.706 2.028 4.706 6.084V86h-3.588v-8.268c0-.728-.221-1.317-.663-1.768a2.158 2.158 0 0 0-1.599-.676c-.728 0-1.313.238-1.755.715-.442.477-.663 1.088-.663 1.833V86h-3.588V72.402h3.51v1.586c.33-.52.815-.97 1.456-1.352.641-.381 1.37-.572 2.184-.572zm24.128 9.256h-6.188L143.792 86H140.1l6.448-18.2h3.848l6.448 18.2h-3.692l-1.586-4.68zm-.962-3.042l-2.132-6.552-2.106 6.552h4.238zm15.002-6.214c3.137 0 4.706 2.028 4.706 6.084V86h-3.588v-8.268c0-.728-.221-1.317-.663-1.768a2.158 2.158 0 0 0-1.599-.676c-.728 0-1.313.238-1.755.715-.442.477-.663 1.088-.663 1.833V86h-3.588V72.402h3.51v1.586c.33-.52.815-.97 1.456-1.352.641-.381 1.37-.572 2.184-.572zm8.398 17.68l1.092-2.756c1.179.624 2.47.936 3.874.936 2.496 0 3.744-.901 3.744-2.704v-.624c-.139.19-.347.403-.624.637-.277.234-.728.477-1.352.728a5.308 5.308 0 0 1-2.002.377c-1.959 0-3.532-.659-4.719-1.976-1.187-1.317-1.781-3.033-1.781-5.148 0-2.097.62-3.813 1.859-5.148 1.24-1.335 2.83-2.002 4.771-2.002 1.005 0 1.859.195 2.561.585.702.39 1.2.784 1.495 1.183v-1.43h3.38v11.882c0 2.375-.667 4.086-2.002 5.135-1.335 1.049-3.103 1.573-5.304 1.573-1.82 0-3.484-.416-4.992-1.248zm8.814-10.556c0-1.161-.325-2.11-.975-2.847-.65-.737-1.495-1.105-2.535-1.105-1.023 0-1.855.364-2.496 1.092-.641.728-.962 1.681-.962 2.86 0 1.179.325 2.136.975 2.873.65.737 1.486 1.105 2.509 1.105 1.04 0 1.88-.364 2.522-1.092.641-.728.962-1.69.962-2.886zm10.79 7.15c-3.137 0-4.706-2.028-4.706-6.084v-7.852h3.588v8.268c0 .728.221 1.317.663 1.768.442.45.975.676 1.599.676.728 0 1.313-.238 1.755-.715.442-.477.663-1.088.663-1.833v-8.164h3.588V86h-3.51v-1.586c-.33.52-.815.97-1.456 1.352-.641.381-1.37.572-2.184.572zm9.854-.338V67.202h3.588V86h-3.588zm5.642-4.212c0-1.335.485-2.418 1.456-3.25.97-.832 2.245-1.248 3.822-1.248 1.23 0 2.21.251 2.938.754v-.884c0-.607-.217-1.092-.65-1.456-.433-.364-1.04-.546-1.82-.546-1.161 0-2.366.32-3.614.962l-1.352-2.444c.659-.45 1.469-.832 2.431-1.144a9.427 9.427 0 0 1 2.925-.468c2.045 0 3.501.472 4.368 1.417.867.945 1.3 2.249 1.3 3.913V86h-3.172l-.234-.884c-.763.815-1.863 1.222-3.302 1.222s-2.648-.412-3.627-1.235c-.98-.823-1.469-1.928-1.469-3.315zm4.238-1.456a1.65 1.65 0 0 0-.65 1.352c0 .555.225 1.005.676 1.352.45.347 1.014.52 1.69.52.693 0 1.257-.169 1.69-.507.433-.338.65-.793.65-1.365 0-.59-.217-1.053-.65-1.391-.433-.338-1.005-.507-1.716-.507-.693 0-1.257.182-1.69.546zm17.472-8.268v3.64c-2.444 0-3.666 1.456-3.666 4.368V86h-3.588V72.402h3.51v1.976a3.836 3.836 0 0 1 1.456-1.677c.659-.425 1.421-.637 2.288-.637zM55.041 116v-10.686h-1.456v-2.912h1.456v-.494c0-1.647.468-2.843 1.404-3.588.936-.745 2.14-1.118 3.614-1.118.433 0 .823.017 1.17.052v3.016l-.26-.026a4.552 4.552 0 0 0-.442-.026c-1.265 0-1.898.59-1.898 1.768v.416h2.366v2.912h-2.366V116h-3.588zm15.106-13.936v3.64c-2.444 0-3.666 1.456-3.666 4.368V116h-3.588v-13.598h3.51v1.976a3.836 3.836 0 0 1 1.456-1.677c.659-.425 1.421-.637 2.288-.637zm3.406 12.272c-1.37-1.335-2.054-3.033-2.054-5.096s.698-3.774 2.093-5.135c1.395-1.36 3.133-2.041 5.213-2.041s3.822.685 5.226 2.054c1.404 1.37 2.106 3.077 2.106 5.122 0 2.063-.689 3.761-2.067 5.096-1.378 1.335-3.133 2.002-5.265 2.002-2.115 0-3.865-.667-5.252-2.002zm1.534-5.096c0 1.144.351 2.084 1.053 2.821.702.737 1.59 1.105 2.665 1.105 1.092 0 1.989-.368 2.691-1.105.702-.737 1.053-1.677 1.053-2.821 0-1.161-.355-2.119-1.066-2.873-.71-.754-1.603-1.131-2.678-1.131s-1.963.377-2.665 1.131-1.053 1.712-1.053 2.873zm32.526-2.21V116h-3.588v-8.138c0-.797-.19-1.426-.572-1.885-.381-.46-.901-.689-1.56-.689s-1.192.23-1.599.689c-.407.46-.611 1.096-.611 1.911V116h-3.588v-8.268c0-.763-.186-1.36-.559-1.794-.373-.433-.888-.65-1.547-.65-.659 0-1.192.23-1.599.689-.407.46-.611 1.088-.611 1.885V116h-3.588v-13.598h3.51v1.586c.277-.537.724-.992 1.339-1.365s1.348-.559 2.197-.559c1.716 0 2.955.676 3.718 2.028.867-1.352 2.21-2.028 4.03-2.028 1.508 0 2.656.45 3.445 1.352.789.901 1.183 2.106 1.183 3.614zm9.49-4.628v-2.86h3.536v2.86h2.548v2.912h-2.548v5.252c0 .97.152 1.62.455 1.95.303.33.819.494 1.547.494.243 0 .46-.009.65-.026v3.068c-.364.087-.875.13-1.534.13-1.612 0-2.795-.455-3.549-1.365-.754-.91-1.131-2.292-1.131-4.147v-5.356h-1.43v-2.912h1.456zm15.496-.338c3.137 0 4.706 2.028 4.706 6.084V116h-3.562v-8.268c0-.728-.221-1.317-.663-1.768a2.158 2.158 0 0 0-1.599-.676c-.745 0-1.343.238-1.794.715-.45.477-.676 1.088-.676 1.833V116h-3.588V97.202h3.588v6.786c.33-.537.806-.992 1.43-1.365.624-.373 1.343-.559 2.158-.559zm6.708 7.176c0-2.063.628-3.774 1.885-5.135 1.257-1.36 2.847-2.041 4.771-2.041 2.08 0 3.7.646 4.862 1.937 1.161 1.291 1.742 3.064 1.742 5.317 0 .347-.009.607-.026.78h-9.568c.035.919.381 1.668 1.04 2.249.659.58 1.49.871 2.496.871 1.439 0 2.54-.555 3.302-1.664l2.366 1.794c-.381.693-1.057 1.365-2.028 2.015-.97.65-2.201.975-3.692.975-2.15 0-3.878-.663-5.187-1.989-1.309-1.326-1.963-3.029-1.963-5.109zm3.77-1.482h5.85c-.035-.832-.32-1.5-.858-2.002-.537-.503-1.222-.754-2.054-.754-.832 0-1.508.26-2.028.78s-.823 1.179-.91 1.976zm17.212 1.482c0-2.063.628-3.774 1.885-5.135 1.257-1.36 2.847-2.041 4.771-2.041 2.08 0 3.7.646 4.862 1.937 1.161 1.291 1.742 3.064 1.742 5.317 0 .347-.009.607-.026.78h-9.568c.035.919.381 1.668 1.04 2.249.659.58 1.49.871 2.496.871 1.439 0 2.54-.555 3.302-1.664l2.366 1.794c-.381.693-1.057 1.365-2.028 2.015-.97.65-2.201.975-3.692.975-2.15 0-3.878-.663-5.187-1.989-1.309-1.326-1.963-3.029-1.963-5.109zm3.77-1.482h5.85c-.035-.832-.32-1.5-.858-2.002-.537-.503-1.222-.754-2.054-.754-.832 0-1.508.26-2.028.78s-.823 1.179-.91 1.976zm19.89 8.242l-2.886-4.264-2.912 4.264h-3.874l4.784-6.942-4.576-6.656h4.03l2.548 4.134 2.548-4.134h4.03l-4.576 6.656 4.784 6.942h-3.9zm5.434 4.862v-18.46h3.38v1.43c.173-.225.403-.455.689-.689.286-.234.741-.472 1.365-.715a5.403 5.403 0 0 1 1.976-.364c1.941 0 3.536.667 4.784 2.002 1.248 1.335 1.872 3.042 1.872 5.122 0 2.115-.59 3.835-1.768 5.161-1.179 1.326-2.739 1.989-4.68 1.989-.71 0-1.378-.121-2.002-.364-.624-.243-1.079-.481-1.365-.715a3.968 3.968 0 0 1-.663-.663v6.266h-3.588zm3.484-11.7c0 1.248.325 2.227.975 2.938.65.71 1.486 1.066 2.509 1.066 1.04 0 1.88-.373 2.522-1.118.641-.745.962-1.707.962-2.886 0-1.196-.325-2.15-.975-2.86-.65-.71-1.486-1.066-2.509-1.066-1.057 0-1.902.377-2.535 1.131-.633.754-.949 1.686-.949 2.795zm11.934.078c0-2.063.628-3.774 1.885-5.135 1.257-1.36 2.847-2.041 4.771-2.041 2.08 0 3.7.646 4.862 1.937 1.161 1.291 1.742 3.064 1.742 5.317 0 .347-.009.607-.026.78h-9.568c.035.919.381 1.668 1.04 2.249.659.58 1.49.871 2.496.871 1.439 0 2.54-.555 3.302-1.664l2.366 1.794c-.381.693-1.057 1.365-2.028 2.015-.97.65-2.201.975-3.692.975-2.15 0-3.878-.663-5.187-1.989-1.309-1.326-1.963-3.029-1.963-5.109zm3.77-1.482h5.85c-.035-.832-.32-1.5-.858-2.002-.537-.503-1.222-.754-2.054-.754-.832 0-1.508.26-2.028.78s-.823 1.179-.91 1.976zm18.746-5.694v3.64c-2.444 0-3.666 1.456-3.666 4.368V116h-3.588v-13.598h3.51v1.976a3.836 3.836 0 0 1 1.456-1.677c.659-.425 1.421-.637 2.288-.637zm2.444.338v-2.86h3.536v2.86h2.548v2.912h-2.548v5.252c0 .97.152 1.62.455 1.95.303.33.819.494 1.547.494.243 0 .46-.009.65-.026v3.068c-.364.087-.875.13-1.534.13-1.612 0-2.795-.455-3.549-1.365-.754-.91-1.131-2.292-1.131-4.147v-5.356h-1.43v-2.912h1.456zm12.48 13.936c-1.23 0-2.275-.247-3.133-.741-.858-.494-1.504-1.088-1.937-1.781l2.106-1.872c.85.988 1.89 1.482 3.12 1.482.52 0 .927-.108 1.222-.325.295-.217.442-.516.442-.897 0-.364-.221-.68-.663-.949a8.274 8.274 0 0 0-1.612-.728 16.648 16.648 0 0 1-1.885-.78c-.624-.303-1.157-.763-1.599-1.378-.442-.615-.663-1.374-.663-2.275 0-1.23.468-2.21 1.404-2.938.936-.728 2.115-1.092 3.536-1.092 2.115 0 3.666.806 4.654 2.418l-2.366 1.768c-.693-.867-1.508-1.3-2.444-1.3-.416 0-.754.1-1.014.299a.95.95 0 0 0-.39.793c0 .381.221.702.663.962.442.26.98.49 1.612.689.633.2 1.265.442 1.898.728s1.17.732 1.612 1.339c.442.607.663 1.36.663 2.262 0 1.3-.494 2.344-1.482 3.133-.988.789-2.236 1.183-3.744 1.183z" fill="#FFF"/><path d="M70.644 147v-11.2h5.536v1.6h-3.76v3.12h3.264v1.584H72.42v3.296h3.92v1.6h-5.696zm11.432 0h-1.968l-3.104-8.352h1.856l2.24 6.464 2.224-6.464h1.824L82.076 147zm4.648-1.008c-.8-.81-1.2-1.856-1.2-3.136s.39-2.336 1.168-3.168c.779-.832 1.744-1.248 2.896-1.248 1.248 0 2.23.397 2.944 1.192.715.795 1.072 1.853 1.072 3.176 0 .192-.005.336-.016.432H87.3c.01.736.259 1.328.744 1.776.485.448 1.101.672 1.848.672 1.003 0 1.77-.39 2.304-1.168l1.152.864c-.267.459-.693.877-1.28 1.256-.587.379-1.323.568-2.208.568-1.29 0-2.336-.405-3.136-1.216zm.64-3.952h4.464c-.032-.672-.256-1.197-.672-1.576-.416-.379-.933-.568-1.552-.568-.608 0-1.12.195-1.536.584-.416.39-.65.91-.704 1.56zm11.544-3.6v1.76c-1.568 0-2.352 1.067-2.352 3.2v3.6h-1.744v-8.352h1.712v1.312c.17-.437.47-.8.896-1.088.427-.288.923-.432 1.488-.432zm4.504 11.424h-1.68l1.184-3.008-3.312-8.208h1.872l2.256 6.08 2.224-6.08h1.824l-4.368 11.216zm5.88-11.216v-1.744h1.728v1.744h1.696v1.44h-1.696v3.888c0 .619.112 1.037.336 1.256.224.219.587.328 1.088.328l.336-.016v1.504a4.343 4.343 0 0 1-.848.064c-.96 0-1.64-.293-2.04-.88-.4-.587-.6-1.43-.6-2.528v-3.616h-.928v-1.44h.928zm8.76-.208c1.003 0 1.739.336 2.208 1.008.47.672.704 1.515.704 2.528V147h-1.728v-5.168c0-.565-.157-1.01-.472-1.336-.315-.325-.717-.488-1.208-.488-.544 0-.987.181-1.328.544-.341.363-.512.832-.512 1.408V147h-1.744v-11.568h1.744v4.304c.203-.363.512-.67.928-.92.416-.25.885-.376 1.408-.376zm4.6 8.56v-8.352h1.744V147h-1.744zm.08-9.632a1.095 1.095 0 0 1-.304-.784c0-.31.104-.568.312-.776.208-.208.467-.312.776-.312.31 0 .568.104.776.312.208.208.312.467.312.776 0 .31-.104.568-.312.776a1.053 1.053 0 0 1-.776.312c-.31 0-.57-.101-.784-.304zm7.48 1.072c1.003 0 1.739.336 2.208 1.008.47.672.704 1.515.704 2.528V147h-1.728v-5.168c0-.565-.157-1.01-.472-1.336-.315-.325-.717-.488-1.208-.488-.544 0-.984.181-1.32.544-.336.363-.504.832-.504 1.408V147h-1.744v-8.352h1.712v1.088c.203-.363.515-.67.936-.92.421-.25.893-.376 1.416-.376zm5.128 10.832l.56-1.344c.736.427 1.552.64 2.448.64.779 0 1.41-.165 1.896-.496.485-.33.728-.864.728-1.6v-.56c-.107.16-.243.317-.408.472-.165.155-.459.33-.88.528a3.222 3.222 0 0 1-1.384.296c-1.195 0-2.16-.405-2.896-1.216-.736-.81-1.104-1.861-1.104-3.152 0-1.29.376-2.347 1.128-3.168.752-.821 1.72-1.232 2.904-1.232.683 0 1.256.147 1.72.44.464.293.797.59 1 .888v-1.12h1.648v7.248c0 1.472-.392 2.536-1.176 3.192-.784.656-1.837.984-3.16.984-1.11 0-2.117-.267-3.024-.8zm5.68-6.448c0-.843-.235-1.525-.704-2.048-.47-.523-1.067-.784-1.792-.784-.725 0-1.32.264-1.784.792-.464.528-.696 1.208-.696 2.04 0 .843.235 1.525.704 2.048.47.523 1.067.784 1.792.784.747 0 1.347-.264 1.8-.792.453-.528.68-1.208.68-2.04zm10.112 7.04h-1.68l1.184-3.008-3.312-8.208h1.872l2.256 6.08 2.224-6.08h1.824l-4.368 11.216zm7.24-9.056c-.49.533-.736 1.21-.736 2.032 0 .821.248 1.496.744 2.024s1.133.792 1.912.792c.779 0 1.421-.267 1.928-.8.507-.533.76-1.21.76-2.032 0-.821-.253-1.499-.76-2.032-.507-.533-1.15-.8-1.928-.8-.779 0-1.419.272-1.92.816zm-2.496 2.032c0-1.259.421-2.307 1.264-3.144.843-.837 1.893-1.256 3.152-1.256 1.28 0 2.339.416 3.176 1.248.837.832 1.256 1.877 1.256 3.136 0 1.259-.421 2.304-1.264 3.136-.843.832-1.899 1.248-3.168 1.248-1.28 0-2.336-.41-3.168-1.232-.832-.821-1.248-1.867-1.248-3.136zm12.936 4.368c-1.003 0-1.739-.336-2.208-1.008-.47-.672-.704-1.515-.704-2.528v-5.024h1.728v5.168c0 .565.157 1.01.472 1.336.315.325.717.488 1.208.488.544 0 .984-.181 1.32-.544.336-.363.504-.832.504-1.408v-5.04h1.744V147h-1.712v-1.088c-.203.363-.512.67-.928.92-.416.25-.89.376-1.424.376zm13.632-8.768c1.003 0 1.739.336 2.208 1.008.47.672.704 1.515.704 2.528V147h-1.728v-5.168c0-.565-.157-1.01-.472-1.336-.315-.325-.717-.488-1.208-.488-.544 0-.984.181-1.32.544-.336.363-.504.832-.504 1.408V147h-1.744v-8.352h1.712v1.088c.203-.363.515-.67.936-.92.421-.25.893-.376 1.416-.376zm5.304 7.552c-.8-.81-1.2-1.856-1.2-3.136s.39-2.336 1.168-3.168c.779-.832 1.744-1.248 2.896-1.248 1.248 0 2.23.397 2.944 1.192.715.795 1.072 1.853 1.072 3.176 0 .192-.005.336-.016.432h-6.288c.01.736.259 1.328.744 1.776.485.448 1.101.672 1.848.672 1.003 0 1.77-.39 2.304-1.168l1.152.864c-.267.459-.693.877-1.28 1.256-.587.379-1.323.568-2.208.568-1.29 0-2.336-.405-3.136-1.216zm.64-3.952h4.464c-.032-.672-.256-1.197-.672-1.576-.416-.379-.933-.568-1.552-.568-.608 0-1.12.195-1.536.584-.416.39-.65.91-.704 1.56zm8.152 3.952c-.8-.81-1.2-1.856-1.2-3.136s.39-2.336 1.168-3.168c.779-.832 1.744-1.248 2.896-1.248 1.248 0 2.23.397 2.944 1.192.715.795 1.072 1.853 1.072 3.176 0 .192-.005.336-.016.432h-6.288c.01.736.259 1.328.744 1.776.485.448 1.101.672 1.848.672 1.003 0 1.77-.39 2.304-1.168l1.152.864c-.267.459-.693.877-1.28 1.256-.587.379-1.323.568-2.208.568-1.29 0-2.336-.405-3.136-1.216zm.64-3.952h4.464c-.032-.672-.256-1.197-.672-1.576-.416-.379-.933-.568-1.552-.568-.608 0-1.12.195-1.536.584-.416.39-.65.91-.704 1.56zm15.352-6.608V147h-1.648v-1.088c-.672.864-1.568 1.296-2.688 1.296-1.195 0-2.173-.408-2.936-1.224-.763-.816-1.144-1.864-1.144-3.144 0-1.301.365-2.36 1.096-3.176.73-.816 1.688-1.224 2.872-1.224.693 0 1.272.15 1.736.448.464.299.787.592.968.88v-4.336h1.744zm-1.68 7.424c0-.885-.235-1.584-.704-2.096-.47-.512-1.067-.768-1.792-.768-.725 0-1.32.267-1.784.8-.464.533-.696 1.221-.696 2.064s.235 1.523.704 2.04c.47.517 1.067.776 1.792.776.747 0 1.347-.272 1.8-.816.453-.544.68-1.21.68-2zm7.392-4.208v-1.744h1.728v1.744h1.696v1.44h-1.696v3.888c0 .619.112 1.037.336 1.256.224.219.587.328 1.088.328l.336-.016v1.504a4.343 4.343 0 0 1-.848.064c-.96 0-1.64-.293-2.04-.88-.4-.587-.6-1.43-.6-2.528v-3.616h-.928v-1.44h.928zm6.664 2.16c-.49.533-.736 1.21-.736 2.032 0 .821.248 1.496.744 2.024s1.133.792 1.912.792c.779 0 1.421-.267 1.928-.8.507-.533.76-1.21.76-2.032 0-.821-.253-1.499-.76-2.032-.507-.533-1.15-.8-1.928-.8-.779 0-1.419.272-1.92.816zm-2.496 2.032c0-1.259.421-2.307 1.264-3.144.843-.837 1.893-1.256 3.152-1.256 1.28 0 2.339.416 3.176 1.248.837.832 1.256 1.877 1.256 3.136 0 1.259-.421 2.304-1.264 3.136-.843.832-1.899 1.248-3.168 1.248-1.28 0-2.336-.41-3.168-1.232-.832-.821-1.248-1.867-1.248-3.136zm-111.524 17.704V166h-1.728v-5.008c0-1.323-.533-1.984-1.6-1.984-.501 0-.91.176-1.224.528-.315.352-.472.843-.472 1.472V166h-1.744v-5.168c0-.565-.141-1.01-.424-1.336-.283-.325-.675-.488-1.176-.488-.48 0-.88.181-1.2.544-.32.363-.48.837-.48 1.424V166h-1.744v-8.352h1.712v1.088c.17-.352.456-.656.856-.912.4-.256.867-.384 1.4-.384 1.163 0 1.963.464 2.4 1.392.523-.928 1.381-1.392 2.576-1.392.917 0 1.621.283 2.112.848.49.565.736 1.317.736 2.256zm1.176 2.88c0-.81.299-1.472.896-1.984s1.376-.768 2.336-.768c.885 0 1.552.203 2 .608v-.784c0-.48-.157-.856-.472-1.128-.315-.272-.75-.408-1.304-.408-.768 0-1.547.219-2.336.656l-.672-1.216c.992-.64 2.053-.96 3.184-.96 2.219 0 3.328 1.056 3.328 3.168V166h-1.52l-.144-.624c-.501.555-1.216.832-2.144.832-.896 0-1.645-.259-2.248-.776-.603-.517-.904-1.187-.904-2.008zm2.224-1.072c-.32.267-.48.608-.48 1.024 0 .416.165.76.496 1.032.33.272.757.408 1.28.408.512 0 .933-.133 1.264-.4.33-.267.496-.613.496-1.04 0-.437-.163-.787-.488-1.048-.325-.261-.755-.392-1.288-.392-.523 0-.95.139-1.28.416zm5.784 2.192l1.088-.864c.501.725 1.168 1.088 2 1.088.384 0 .693-.09.928-.272.235-.181.352-.437.352-.768 0-.288-.139-.533-.416-.736a4.025 4.025 0 0 0-1.016-.52c-.4-.144-.8-.307-1.2-.488a2.608 2.608 0 0 1-1.016-.824c-.277-.368-.416-.819-.416-1.352 0-.725.27-1.301.808-1.728.539-.427 1.224-.64 2.056-.64.704 0 1.283.157 1.736.472.453.315.781.675.984 1.08l-1.2.8c-.384-.619-.923-.928-1.616-.928-.33 0-.6.083-.808.248a.805.805 0 0 0-.312.664c0 .288.141.528.424.72.283.192.621.357 1.016.496s.792.296 1.192.472a2.6 2.6 0 0 1 1.024.816c.283.368.424.824.424 1.368 0 .768-.285 1.387-.856 1.856-.57.47-1.293.704-2.168.704-1.387 0-2.39-.555-3.008-1.664zm7.352-6.896v-1.744h1.728v1.744h1.696v1.44h-1.696v3.888c0 .619.112 1.037.336 1.256.224.219.587.328 1.088.328l.336-.016v1.504a4.343 4.343 0 0 1-.848.064c-.96 0-1.64-.293-2.04-.88-.4-.587-.6-1.43-.6-2.528v-3.616h-.928v-1.44h.928zm5.384 7.344c-.8-.81-1.2-1.856-1.2-3.136s.39-2.336 1.168-3.168c.779-.832 1.744-1.248 2.896-1.248 1.248 0 2.23.397 2.944 1.192.715.795 1.072 1.853 1.072 3.176 0 .192-.005.336-.016.432h-6.288c.01.736.259 1.328.744 1.776.485.448 1.101.672 1.848.672 1.003 0 1.77-.39 2.304-1.168l1.152.864c-.267.459-.693.877-1.28 1.256-.587.379-1.323.568-2.208.568-1.29 0-2.336-.405-3.136-1.216zm.64-3.952h4.464c-.032-.672-.256-1.197-.672-1.576-.416-.379-.933-.568-1.552-.568-.608 0-1.12.195-1.536.584-.416.39-.65.91-.704 1.56zm11.544-3.6v1.76c-1.568 0-2.352 1.067-2.352 3.2v3.6h-1.744v-8.352h1.712v1.312c.17-.437.47-.8.896-1.088.427-.288.923-.432 1.488-.432zm11.152 5.296h-4.096L150.88 166h-1.792l4.08-11.2h1.84l4.08 11.2h-1.792l-1.152-3.264zm-.496-1.488l-1.552-4.528-1.552 4.528h3.104zm8.456-3.808c1.003 0 1.739.336 2.208 1.008.47.672.704 1.515.704 2.528V166h-1.728v-5.168c0-.565-.157-1.01-.472-1.336-.315-.325-.717-.488-1.208-.488-.544 0-.984.181-1.32.544-.336.363-.504.832-.504 1.408V166h-1.744v-8.352h1.712v1.088c.203-.363.515-.67.936-.92.421-.25.893-.376 1.416-.376zm5.128 10.832l.56-1.344c.736.427 1.552.64 2.448.64.779 0 1.41-.165 1.896-.496.485-.33.728-.864.728-1.6v-.56c-.107.16-.243.317-.408.472-.165.155-.459.33-.88.528a3.222 3.222 0 0 1-1.384.296c-1.195 0-2.16-.405-2.896-1.216-.736-.81-1.104-1.861-1.104-3.152 0-1.29.376-2.347 1.128-3.168.752-.821 1.72-1.232 2.904-1.232.683 0 1.256.147 1.72.44.464.293.797.59 1 .888v-1.12h1.648v7.248c0 1.472-.392 2.536-1.176 3.192-.784.656-1.837.984-3.16.984-1.11 0-2.117-.267-3.024-.8zm5.68-6.448c0-.843-.235-1.525-.704-2.048-.47-.523-1.067-.784-1.792-.784-.725 0-1.32.264-1.784.792-.464.528-.696 1.208-.696 2.04 0 .843.235 1.525.704 2.048.47.523 1.067.784 1.792.784.747 0 1.347-.264 1.8-.792.453-.528.68-1.208.68-2.04zm6.216 4.384c-1.003 0-1.739-.336-2.208-1.008-.47-.672-.704-1.515-.704-2.528v-5.024h1.728v5.168c0 .565.157 1.01.472 1.336.315.325.717.488 1.208.488.544 0 .984-.181 1.32-.544.336-.363.504-.832.504-1.408v-5.04h1.744V166h-1.712v-1.088c-.203.363-.512.67-.928.92-.416.25-.89.376-1.424.376zm5.752-.208v-11.568h1.744V166h-1.744zm2.984-2.576c0-.81.299-1.472.896-1.984s1.376-.768 2.336-.768c.885 0 1.552.203 2 .608v-.784c0-.48-.157-.856-.472-1.128-.315-.272-.75-.408-1.304-.408-.768 0-1.547.219-2.336.656l-.672-1.216c.992-.64 2.053-.96 3.184-.96 2.219 0 3.328 1.056 3.328 3.168V166h-1.52l-.144-.624c-.501.555-1.216.832-2.144.832-.896 0-1.645-.259-2.248-.776-.603-.517-.904-1.187-.904-2.008zm2.224-1.072c-.32.267-.48.608-.48 1.024 0 .416.165.76.496 1.032.33.272.757.408 1.28.408.512 0 .933-.133 1.264-.4.33-.267.496-.613.496-1.04 0-.437-.163-.787-.488-1.048-.325-.261-.755-.392-1.288-.392-.523 0-.95.139-1.28.416zm10.472-4.912v1.76c-1.568 0-2.352 1.067-2.352 3.2v3.6h-1.744v-8.352h1.712v1.312c.17-.437.47-.8.896-1.088.427-.288.923-.432 1.488-.432z" fill-opacity=".9" fill="#FFF"/></g></svg>